<svg width="34" height="34" viewBox="0 0 34 34" fill="none" xmlns="http://www.w3.org/2000/svg">
<path d="M2.83334 17L2.05247 16.3753L1.55272 17L2.05247 17.6247L2.83334 17ZM15.5833 18C16.1356 18 16.5833 17.5523 16.5833 17C16.5833 16.4477 16.1356 16 15.5833 16V18ZM7.71914 9.29199L2.05247 16.3753L3.61421 17.6247L9.28088 10.5414L7.71914 9.29199ZM2.05247 17.6247L7.71914 24.708L9.28088 23.4587L3.61421 16.3753L2.05247 17.6247ZM2.83334 18H15.5833V16H2.83334V18Z" fill="white" style="fill:white;fill-opacity:1;"/>
<path d="M14.1667 11.5202V9.05515C14.1667 7.43681 14.1667 6.62764 14.6406 6.06815C15.1146 5.50866 15.9127 5.37563 17.5091 5.10958L24.1803 3.99771C27.4234 3.4572 29.0449 3.18694 30.1058 4.08563C31.1667 4.98433 31.1667 6.62825 31.1667 9.91608V24.0839C31.1667 27.3717 31.1667 29.0156 30.1058 29.9143C29.0449 30.813 27.4234 30.5428 24.1803 30.0022L17.5091 28.8904C15.9127 28.6243 15.1146 28.4913 14.6406 27.9318C14.1667 27.3723 14.1667 26.5631 14.1667 24.9448V22.7601" stroke="white" style="stroke:white;stroke-opacity:1;" stroke-width="2"/>
</svg>
